<?xml version="1.0" encoding="UTF-8" standalone="no"?>
<!DOCTYPE svg PUBLIC "-//W3C//DTD SVG 1.0//EN" "http://www.w3.org/TR/2001/PR-SVG-20010719/DTD/svg10.dtd">
<svg width="49cm" height="37cm" viewBox="273 140 961 728" xmlns="http://www.w3.org/2000/svg" xmlns:xlink="http://www.w3.org/1999/xlink">
  <g>
    <rect style="fill: #ffffff" x="771.735" y="267.157" width="74.2" height="36"/>
    <rect style="fill: none; fill-opacity:0; stroke-width: 2; stroke: #000000" x="771.735" y="267.157" width="74.2" height="36"/>
    <text font-size="12.7998" style="fill: #000000;text-anchor:middle;font-family:monospace;font-style:normal;font-weight:normal" x="808.835" y="289.157">Pessoa</text>
  </g>
  <g>
    <polygon style="fill: #ffffff" points="788.521,389.503 828.521,389.503 808.521,345.503 "/>
    <polygon style="fill: none; fill-opacity:0; stroke-width: 2; stroke: #000000" points="788.521,389.503 828.521,389.503 808.521,345.503 "/>
    <text font-size="12.7998" style="fill: #000000;text-anchor:middle;font-family:sans-serif;font-style:normal;font-weight:normal" x="808.521" y="383.503">
      <tspan x="808.521" y="383.503">s</tspan>
    </text>
  </g>
  <g>
    <rect style="fill: #ffffff" x="679.796" y="411.632" width="81.9" height="36"/>
    <rect style="fill: none; fill-opacity:0; stroke-width: 2; stroke: #000000" x="679.796" y="411.632" width="81.9" height="36"/>
    <text font-size="12.7998" style="fill: #000000;text-anchor:middle;font-family:monospace;font-style:normal;font-weight:normal" x="720.746" y="433.632">Cliente</text>
  </g>
  <g>
    <rect style="fill: #ffffff" x="844.812" y="416.902" width="112.7" height="36"/>
    <rect style="fill: none; fill-opacity:0; stroke-width: 2; stroke: #000000" x="844.812" y="416.902" width="112.7" height="36"/>
    <text font-size="12.7998" style="fill: #000000;text-anchor:middle;font-family:monospace;font-style:normal;font-weight:normal" x="901.162" y="438.902">Funcionario</text>
  </g>
  <polyline style="fill: none; fill-opacity:0; stroke-width: 2; stroke: #000000" points="843.805,434.902 818.521,434.902 818.521,389.503 "/>
  <g>
    <polyline style="fill: none; fill-opacity:0; stroke-width: 2; stroke: #000000" points="811.335,304.162 811.335,335.636 811.021,335.636 811.021,345.755 "/>
    <polyline style="fill: none; fill-opacity:0; stroke-width: 2; stroke: #000000" points="806.335,304.162 806.335,330.636 806.021,330.636 806.021,345.755 "/>
  </g>
  <g>
    <ellipse style="fill: #ffffff" cx="771.707" cy="216.416" rx="31.55" ry="18"/>
    <ellipse style="fill: none; fill-opacity:0; stroke-width: 2; stroke: #000000" cx="771.707" cy="216.416" rx="31.55" ry="18"/>
    <text font-size="12.7998" style="fill: #000000;text-anchor:middle;font-family:monospace;font-style:normal;font-weight:normal" x="771.707" y="220.416">CPF</text>
    <line style="fill: none; fill-opacity:0; stroke-width: 2; stroke: #000000" x1="760.157" y1="224.416" x2="783.257" y2="224.416"/>
  </g>
  <g>
    <ellipse style="fill: #ffffff" cx="698.483" cy="285.005" rx="35.4" ry="18"/>
    <ellipse style="fill: none; fill-opacity:0; stroke-width: 2; stroke: #000000" cx="698.483" cy="285.005" rx="35.4" ry="18"/>
    <text font-size="12.7998" style="fill: #000000;text-anchor:middle;font-family:monospace;font-style:normal;font-weight:normal" x="698.483" y="289.005">nome</text>
  </g>
  <g>
    <ellipse style="fill: #ffffff" cx="867.324" cy="222.78" rx="50.8" ry="18"/>
    <ellipse style="fill: none; fill-opacity:0; stroke-width: 2; stroke: #000000" cx="867.324" cy="222.78" rx="50.8" ry="18"/>
    <text font-size="12.7998" style="fill: #000000;text-anchor:middle;font-family:monospace;font-style:normal;font-weight:normal" x="867.324" y="226.78">datanasc</text>
  </g>
  <g>
    <ellipse style="fill: #ffffff" cx="937.328" cy="285.005" rx="50.8" ry="18"/>
    <ellipse style="fill: none; fill-opacity:0; stroke-width: 2; stroke: #000000" cx="937.328" cy="285.005" rx="50.8" ry="18"/>
    <ellipse style="fill: none; fill-opacity:0; stroke-width: 2; stroke: #000000" cx="937.328" cy="285.005" rx="42.8" ry="14"/>
    <text font-size="12.7998" style="fill: #000000;text-anchor:middle;font-family:monospace;font-style:normal;font-weight:normal" x="937.328" y="289.005">telefone</text>
  </g>
  <polyline style="fill: none; fill-opacity:0; stroke-width: 2; stroke: #000000" points="734.892,285.005 752.809,285.005 752.809,285.157 770.725,285.157 "/>
  <polyline style="fill: none; fill-opacity:0; stroke-width: 2; stroke: #000000" points="771.707,235.414 771.707,251.14 771.735,251.14 771.735,267.157 "/>
  <polyline style="fill: none; fill-opacity:0; stroke-width: 2; stroke: #000000" points="845.935,267.157 867.324,267.157 867.324,241.789 "/>
  <polyline style="fill: none; fill-opacity:0; stroke-width: 2; stroke: #000000" points="846.944,285.157 866.233,285.157 866.233,285.005 885.521,285.005 "/>
  <g>
    <ellipse style="fill: #ffffff" cx="973.705" cy="371.272" rx="54.65" ry="18"/>
    <ellipse style="fill: none; fill-opacity:0; stroke-width: 2; stroke: #000000" cx="973.705" cy="371.272" rx="54.65" ry="18"/>
    <text font-size="12.7998" style="fill: #000000;text-anchor:middle;font-family:monospace;font-style:normal;font-weight:normal" x="973.705" y="375.272">matricula</text>
    <line style="fill: none; fill-opacity:0; stroke-width: 2; stroke: #000000" x1="939.055" y1="379.272" x2="1008.35" y2="379.272"/>
  </g>
  <polyline style="fill: none; fill-opacity:0; stroke-width: 2; stroke: #000000" points="901.162,415.893 901.162,403.087 973.705,403.087 973.705,390.281 "/>
  <g>
    <rect style="fill: #ffffff" x="843.394" y="711.067" width="74.2" height="36"/>
    <rect style="fill: none; fill-opacity:0; stroke-width: 2; stroke: #000000" x="843.394" y="711.067" width="74.2" height="36"/>
    <text font-size="12.7998" style="fill: #000000;text-anchor:middle;font-family:monospace;font-style:normal;font-weight:normal" x="880.494" y="733.067">Piloto</text>
  </g>
  <g>
    <rect style="fill: #ffffff" x="1102.9" y="584.495" width="81.9" height="36"/>
    <rect style="fill: none; fill-opacity:0; stroke-width: 2; stroke: #000000" x="1102.9" y="584.495" width="81.9" height="36"/>
    <text font-size="12.7998" style="fill: #000000;text-anchor:middle;font-family:monospace;font-style:normal;font-weight:normal" x="1143.85" y="606.495">FuncAdm</text>
  </g>
  <g>
    <rect style="fill: #ffffff" x="962.188" y="472.066" width="89.6" height="36"/>
    <rect style="fill: none; fill-opacity:0; stroke-width: 2; stroke: #000000" x="962.188" y="472.066" width="89.6" height="36"/>
    <text font-size="12.7998" style="fill: #000000;text-anchor:middle;font-family:monospace;font-style:normal;font-weight:normal" x="1006.99" y="494.066">Mecanico</text>
  </g>
  <g>
    <polygon style="fill: #ffffff" points="880.871,526.793 920.871,526.793 900.871,482.793 "/>
    <polygon style="fill: none; fill-opacity:0; stroke-width: 2; stroke: #000000" points="880.871,526.793 920.871,526.793 900.871,482.793 "/>
    <text font-size="12.7998" style="fill: #000000;text-anchor:middle;font-family:sans-serif;font-style:normal;font-weight:normal" x="900.871" y="520.793">
      <tspan x="900.871" y="520.793">d</tspan>
    </text>
  </g>
  <polyline style="fill: none; fill-opacity:0; stroke-width: 2; stroke: #000000" points="880.494,710.058 880.494,618.425 880.871,618.425 880.871,526.793 "/>
  <polyline style="fill: none; fill-opacity:0; stroke-width: 2; stroke: #000000" points="961.182,490.066 936.027,490.066 936.027,504.793 910.871,504.793 "/>
  <polyline style="fill: none; fill-opacity:0; stroke-width: 2; stroke: #000000" points="1143.85,583.511 1143.85,555.165 920.871,555.165 920.871,526.819 "/>
  <g>
    <polyline style="fill: none; fill-opacity:0; stroke-width: 2; stroke: #000000" points="898.371,482.793 898.371,465.348 898.662,465.348 898.662,452.902 "/>
    <polyline style="fill: none; fill-opacity:0; stroke-width: 2; stroke: #000000" points="903.371,482.793 903.371,470.348 903.662,470.348 903.662,452.902 "/>
  </g>
  <g>
    <rect style="fill: #ffffff" x="653.183" y="584.495" width="135.8" height="36"/>
    <rect style="fill: none; fill-opacity:0; stroke-width: 2; stroke: #000000" x="653.183" y="584.495" width="135.8" height="36"/>
    <rect style="fill: none; fill-opacity:0; stroke-width: 2; stroke: #000000" x="658.183" y="589.495" width="125.8" height="26"/>
    <text font-size="12.7998" style="fill: #000000;text-anchor:middle;font-family:monospace;font-style:normal;font-weight:normal" x="721.083" y="606.495">Passagem Aerea</text>
  </g>
  <g>
    <polygon style="fill: #ffffff" points="677.932,512.775 721.032,486.915 764.132,512.775 721.032,538.635 "/>
    <polygon style="fill: none; fill-opacity:0; stroke-width: 2; stroke: #000000" points="677.932,512.775 721.032,486.915 764.132,512.775 721.032,538.635 "/>
    <text font-size="12.7998" style="fill: #000000;text-anchor:start;font-family:monospace;font-style:normal;font-weight:normal" x="725.032" y="480.915">1</text>
    <text font-size="12.7998" style="fill: #000000;text-anchor:start;font-family:monospace;font-style:normal;font-weight:normal" x="725.032" y="560.635">N</text>
    <text font-size="12.7998" style="fill: #000000;text-anchor:middle;font-family:monospace;font-style:normal;font-weight:normal" x="721.032" y="516.775">Compra</text>
  </g>
  <polyline style="fill: none; fill-opacity:0; stroke-width: 2; stroke: #000000" points="721.083,583.486 721.083,561.06 721.032,561.06 721.032,538.635 "/>
  <polyline style="fill: none; fill-opacity:0; stroke-width: 2; stroke: #000000" points="721.032,486.915 721.032,467.274 720.746,467.274 720.746,447.632 "/>
  <g>
    <rect style="fill: #ffffff" x="516.005" y="768.342" width="89.6" height="36"/>
    <rect style="fill: none; fill-opacity:0; stroke-width: 2; stroke: #000000" x="516.005" y="768.342" width="89.6" height="36"/>
    <text font-size="12.7998" style="fill: #000000;text-anchor:middle;font-family:monospace;font-style:normal;font-weight:normal" x="560.805" y="790.342">Aeronave</text>
  </g>
  <g>
    <ellipse style="fill: #ffffff" cx="518.093" cy="848.567" rx="43.1" ry="18"/>
    <ellipse style="fill: none; fill-opacity:0; stroke-width: 2; stroke: #000000" cx="518.093" cy="848.567" rx="43.1" ry="18"/>
    <text font-size="12.7998" style="fill: #000000;text-anchor:middle;font-family:monospace;font-style:normal;font-weight:normal" x="518.093" y="852.567">Modelo</text>
  </g>
  <g>
    <ellipse style="fill: #ffffff" cx="748.296" cy="804.02" rx="73.9" ry="18"/>
    <ellipse style="fill: none; fill-opacity:0; stroke-width: 2; stroke: #000000" cx="748.296" cy="804.02" rx="73.9" ry="18"/>
    <text font-size="12.7998" style="fill: #000000;text-anchor:middle;font-family:monospace;font-style:normal;font-weight:normal" x="748.296" y="808.02">Ano Fabricacao</text>
  </g>
  <g>
    <ellipse style="fill: #ffffff" cx="441.726" cy="786.342" rx="43.1" ry="18"/>
    <ellipse style="fill: none; fill-opacity:0; stroke-width: 2; stroke: #000000" cx="441.726" cy="786.342" rx="43.1" ry="18"/>
    <text font-size="12.7998" style="fill: #000000;text-anchor:middle;font-family:monospace;font-style:normal;font-weight:normal" x="441.726" y="790.342">Número</text>
    <line style="fill: none; fill-opacity:0; stroke-width: 2; stroke: #000000" x1="418.626" y1="794.342" x2="464.826" y2="794.342"/>
  </g>
  <polyline style="fill: none; fill-opacity:0; stroke-width: 2; stroke: #000000" points="518.01,806.526 518.01,818.547 518.093,818.547 518.093,830.567 "/>
  <polyline style="fill: none; fill-opacity:0; stroke-width: 2; stroke: #000000" points="485.831,786.342 486.831,786.342 515.005,786.342 516.005,786.342 "/>
  <polyline style="fill: none; fill-opacity:0; stroke-width: 2; stroke: #000000" points="605.605,804.342 605.605,803.895 674.396,803.895 674.396,804.02 "/>
  <g>
    <ellipse style="fill: #ffffff" cx="679.395" cy="842.203" rx="104.7" ry="18"/>
    <ellipse style="fill: none; fill-opacity:0; stroke-width: 2; stroke: #000000" cx="679.395" cy="842.203" rx="104.7" ry="18"/>
    <text font-size="12.7998" style="fill: #000000;text-anchor:middle;font-family:monospace;font-style:normal;font-weight:normal" x="679.395" y="846.203">capacidade passageiros</text>
  </g>
  <polyline style="fill: none; fill-opacity:0; stroke-width: 2; stroke: #000000" points="605.361,829.476 605.361,816.909 605.605,816.909 605.605,804.342 "/>
  <g>
    <rect style="fill: #ffffff" x="496.913" y="333.473" width="97.3" height="36"/>
    <rect style="fill: none; fill-opacity:0; stroke-width: 2; stroke: #000000" x="496.913" y="333.473" width="97.3" height="36"/>
    <text font-size="12.7998" style="fill: #000000;text-anchor:middle;font-family:monospace;font-style:normal;font-weight:normal" x="545.563" y="355.473">Aeroporto</text>
  </g>
  <g>
    <ellipse style="fill: #ffffff" cx="431.434" cy="219.952" rx="46.95" ry="18"/>
    <ellipse style="fill: none; fill-opacity:0; stroke-width: 2; stroke: #000000" cx="431.434" cy="219.952" rx="46.95" ry="18"/>
    <text font-size="12.7998" style="fill: #000000;text-anchor:middle;font-family:monospace;font-style:normal;font-weight:normal" x="431.434" y="223.952">códigoC</text>
    <line style="fill: none; fill-opacity:0; stroke-width: 2; stroke: #000000" x1="404.484" y1="227.952" x2="458.384" y2="227.952"/>
  </g>
  <g>
    <rect style="fill: #ffffff" x="508.934" y="201.952" width="74.2" height="36"/>
    <rect style="fill: none; fill-opacity:0; stroke-width: 2; stroke: #000000" x="508.934" y="201.952" width="74.2" height="36"/>
    <text font-size="12.7998" style="fill: #000000;text-anchor:middle;font-family:monospace;font-style:normal;font-weight:normal" x="546.034" y="223.952">Cidade</text>
  </g>
  <g>
    <ellipse style="fill: #ffffff" cx="420.342" cy="353.534" rx="46.95" ry="18"/>
    <ellipse style="fill: none; fill-opacity:0; stroke-width: 2; stroke: #000000" cx="420.342" cy="353.534" rx="46.95" ry="18"/>
    <text font-size="12.7998" style="fill: #000000;text-anchor:middle;font-family:monospace;font-style:normal;font-weight:normal" x="420.342" y="357.534">códigoA</text>
    <line style="fill: none; fill-opacity:0; stroke-width: 2; stroke: #000000" x1="393.392" y1="361.534" x2="447.292" y2="361.534"/>
  </g>
  <polyline style="fill: none; fill-opacity:0; stroke-width: 2; stroke: #000000" points="478.384,219.952 479.384,219.952 507.934,219.952 508.934,219.952 "/>
  <polyline style="fill: none; fill-opacity:0; stroke-width: 2; stroke: #000000" points="467.292,353.534 481.396,353.534 481.396,354.333 495.499,354.333 "/>
  <g>
    <ellipse style="fill: #ffffff" cx="508.272" cy="159.494" rx="35.4" ry="18"/>
    <ellipse style="fill: none; fill-opacity:0; stroke-width: 2; stroke: #000000" cx="508.272" cy="159.494" rx="35.4" ry="18"/>
    <text font-size="12.7998" style="fill: #000000;text-anchor:middle;font-family:monospace;font-style:normal;font-weight:normal" x="508.272" y="163.494">nome</text>
  </g>
  <g>
    <ellipse style="fill: #ffffff" cx="583.303" cy="161.616" rx="27.7" ry="18"/>
    <ellipse style="fill: none; fill-opacity:0; stroke-width: 2; stroke: #000000" cx="583.303" cy="161.616" rx="27.7" ry="18"/>
    <text font-size="12.7998" style="fill: #000000;text-anchor:middle;font-family:monospace;font-style:normal;font-weight:normal" x="583.303" y="165.616">UF</text>
  </g>
  <polyline style="fill: none; fill-opacity:0; stroke-width: 2; stroke: #000000" points="508.272,177.494 508.272,189.723 508.934,189.723 508.934,201.952 "/>
  <polyline style="fill: none; fill-opacity:0; stroke-width: 2; stroke: #000000" points="583.303,179.616 583.303,190.784 583.134,190.784 583.134,201.952 "/>
  <g>
    <polygon style="fill: #ffffff" points="518.126,278.322 545.826,261.702 573.526,278.322 545.826,294.942 "/>
    <polygon style="fill: none; fill-opacity:0; stroke-width: 2; stroke: #000000" points="518.126,278.322 545.826,261.702 573.526,278.322 545.826,294.942 "/>
    <text font-size="12.7998" style="fill: #000000;text-anchor:start;font-family:monospace;font-style:normal;font-weight:normal" x="549.826" y="255.702">1</text>
    <text font-size="12.7998" style="fill: #000000;text-anchor:start;font-family:monospace;font-style:normal;font-weight:normal" x="549.826" y="316.942">N</text>
    <text font-size="12.7998" style="fill: #000000;text-anchor:middle;font-family:monospace;font-style:normal;font-weight:normal" x="545.826" y="282.322">R1</text>
  </g>
  <polyline style="fill: none; fill-opacity:0; stroke-width: 2; stroke: #000000" points="545.826,261.702 545.826,249.827 546.034,249.827 546.034,237.952 "/>
  <polyline style="fill: none; fill-opacity:0; stroke-width: 2; stroke: #000000" points="545.826,294.942 545.826,314.208 545.563,314.208 545.563,333.473 "/>
  <g>
    <rect style="fill: #ffffff" x="382.362" y="585.556" width="51.1" height="36"/>
    <rect style="fill: none; fill-opacity:0; stroke-width: 2; stroke: #000000" x="382.362" y="585.556" width="51.1" height="36"/>
    <text font-size="12.7998" style="fill: #000000;text-anchor:middle;font-family:monospace;font-style:normal;font-weight:normal" x="407.912" y="607.556">Voo</text>
  </g>
  <g>
    <polygon style="fill: #ffffff" points="475.583,602.484 545.633,560.454 615.683,602.484 545.633,644.514 "/>
    <polygon style="fill: none; fill-opacity:0; stroke-width: 2; stroke: #000000" points="475.583,602.484 545.633,560.454 615.683,602.484 545.633,644.514 "/>
    <text font-size="12.7998" style="fill: #000000;text-anchor:end;font-family:monospace;font-style:normal;font-weight:normal" x="469.583" y="596.484">1</text>
    <text font-size="12.7998" style="fill: #000000;text-anchor:start;font-family:monospace;font-style:normal;font-weight:normal" x="621.683" y="596.484">N</text>
    <text font-size="12.7998" style="fill: #000000;text-anchor:middle;font-family:monospace;font-style:normal;font-weight:normal" x="545.633" y="606.484">Disponibiliza</text>
  </g>
  <polyline style="fill: none; fill-opacity:0; stroke-width: 2; stroke: #000000" points="615.683,602.484 633.929,602.484 633.929,602.495 652.175,602.495 "/>
  <polyline style="fill: none; fill-opacity:0; stroke-width: 2; stroke: #000000" points="475.583,602.484 454.523,602.484 454.523,603.556 433.462,603.556 "/>
  <g>
    <ellipse style="fill: #ffffff" cx="327.765" cy="643.154" rx="43.1" ry="18"/>
    <ellipse style="fill: none; fill-opacity:0; stroke-width: 2; stroke: #000000" cx="327.765" cy="643.154" rx="43.1" ry="18"/>
    <text font-size="12.7998" style="fill: #000000;text-anchor:middle;font-family:monospace;font-style:normal;font-weight:normal" x="327.765" y="647.154">número</text>
    <line style="fill: none; fill-opacity:0; stroke-width: 2; stroke: #000000" x1="304.665" y1="651.154" x2="350.865" y2="651.154"/>
  </g>
  <polyline style="fill: none; fill-opacity:0; stroke-width: 2; stroke: #000000" points="382.362,603.556 327.765,603.556 327.765,625.154 "/>
  <g>
    <polygon style="fill: #ffffff" points="274.059,488.427 332.559,453.327 391.059,488.427 332.559,523.527 "/>
    <polygon style="fill: none; fill-opacity:0; stroke-width: 2; stroke: #000000" points="274.059,488.427 332.559,453.327 391.059,488.427 332.559,523.527 "/>
    <text font-size="12.7998" style="fill: #000000;text-anchor:start;font-family:monospace;font-style:normal;font-weight:normal" x="336.559" y="447.327">1</text>
    <text font-size="12.7998" style="fill: #000000;text-anchor:start;font-family:monospace;font-style:normal;font-weight:normal" x="336.559" y="545.527">N</text>
    <text font-size="12.7998" style="fill: #000000;text-anchor:middle;font-family:monospace;font-style:normal;font-weight:normal" x="332.559" y="492.427">Voo Origem</text>
  </g>
  <polyline style="fill: none; fill-opacity:0; stroke-width: 2; stroke: #000000" points="382.362,585.556 332.748,585.556 332.748,523.527 332.559,523.527 "/>
  <polyline style="fill: none; fill-opacity:0; stroke-width: 2; stroke: #000000" points="496.913,369.473 496.913,411.4 332.559,411.4 332.559,453.327 "/>
  <g>
    <polygon style="fill: #ffffff" points="532.374,468.483 594.724,431.073 657.074,468.483 594.724,505.893 "/>
    <polygon style="fill: none; fill-opacity:0; stroke-width: 2; stroke: #000000" points="532.374,468.483 594.724,431.073 657.074,468.483 594.724,505.893 "/>
    <text font-size="12.7998" style="fill: #000000;text-anchor:start;font-family:monospace;font-style:normal;font-weight:normal" x="598.724" y="425.073">1</text>
    <text font-size="12.7998" style="fill: #000000;text-anchor:start;font-family:monospace;font-style:normal;font-weight:normal" x="598.724" y="527.893">N</text>
    <text font-size="12.7998" style="fill: #000000;text-anchor:middle;font-family:monospace;font-style:normal;font-weight:normal" x="594.724" y="472.483">Voo Destino</text>
  </g>
  <polyline style="fill: none; fill-opacity:0; stroke-width: 2; stroke: #000000" points="433.462,585.556 433.462,545.724 594.724,545.724 594.724,505.893 "/>
  <polyline style="fill: none; fill-opacity:0; stroke-width: 2; stroke: #000000" points="594.724,431.073 594.724,400.273 594.213,400.273 594.213,369.473 "/>
  <g>
    <polygon style="fill: #ffffff" points="354.668,702.938 382.368,686.318 410.068,702.938 382.368,719.558 "/>
    <polygon style="fill: none; fill-opacity:0; stroke-width: 2; stroke: #000000" points="354.668,702.938 382.368,686.318 410.068,702.938 382.368,719.558 "/>
    <text font-size="12.7998" style="fill: #000000;text-anchor:start;font-family:monospace;font-style:normal;font-weight:normal" x="386.368" y="680.318">N</text>
    <text font-size="12.7998" style="fill: #000000;text-anchor:start;font-family:monospace;font-style:normal;font-weight:normal" x="386.368" y="741.558">1</text>
    <text font-size="12.7998" style="fill: #000000;text-anchor:middle;font-family:monospace;font-style:normal;font-weight:normal" x="382.368" y="706.938">R2</text>
  </g>
  <polyline style="fill: none; fill-opacity:0; stroke-width: 2; stroke: #000000" points="382.362,621.556 382.362,653.937 382.368,653.937 382.368,686.318 "/>
  <polyline style="fill: none; fill-opacity:0; stroke-width: 2; stroke: #000000" points="382.368,719.558 382.368,749.253 560.805,749.253 560.805,768.342 "/>
  <g>
    <ellipse style="fill: #ffffff" cx="435.247" cy="443.023" rx="77.75" ry="18"/>
    <ellipse style="fill: none; fill-opacity:0; stroke-width: 2; stroke: #000000" cx="435.247" cy="443.023" rx="77.75" ry="18"/>
    <text font-size="12.7998" style="fill: #000000;text-anchor:middle;font-family:monospace;font-style:normal;font-weight:normal" x="435.247" y="447.023">Horario Partida</text>
  </g>
  <polyline style="fill: none; fill-opacity:0; stroke-width: 2; stroke: #000000" points="391.059,488.427 435.247,488.427 435.247,461.023 "/>
  <g>
    <ellipse style="fill: #ffffff" cx="477.673" cy="514.44" rx="77.75" ry="18"/>
    <ellipse style="fill: none; fill-opacity:0; stroke-width: 2; stroke: #000000" cx="477.673" cy="514.44" rx="77.75" ry="18"/>
    <text font-size="12.7998" style="fill: #000000;text-anchor:middle;font-family:monospace;font-style:normal;font-weight:normal" x="477.673" y="518.44">Horario Chegada</text>
  </g>
  <polyline style="fill: none; fill-opacity:0; stroke-width: 2; stroke: #000000" points="477.673,496.44 477.673,468.483 532.374,468.483 "/>
  <g>
    <polygon style="fill: #ffffff" points="577.406,689.884 620.506,664.024 663.606,689.884 620.506,715.744 "/>
    <polygon style="fill: none; fill-opacity:0; stroke-width: 2; stroke: #000000" points="577.406,689.884 620.506,664.024 663.606,689.884 620.506,715.744 "/>
    <text font-size="12.7998" style="fill: #000000;text-anchor:end;font-family:monospace;font-style:normal;font-weight:normal" x="571.406" y="683.884">N</text>
    <text font-size="12.7998" style="fill: #000000;text-anchor:start;font-family:monospace;font-style:normal;font-weight:normal" x="669.606" y="683.884">1</text>
    <text font-size="12.7998" style="fill: #000000;text-anchor:middle;font-family:monospace;font-style:normal;font-weight:normal" x="620.506" y="693.884">Piloto</text>
  </g>
  <polyline style="fill: none; fill-opacity:0; stroke-width: 2; stroke: #000000" points="433.462,621.556 433.462,691.247 577.406,691.247 577.406,689.884 "/>
  <polyline style="fill: none; fill-opacity:0; stroke-width: 2; stroke: #000000" points="663.606,689.884 663.606,689.833 843.394,689.833 843.394,747.067 "/>
  <g>
    <polygon style="fill: #ffffff" points="645.068,728.926 699.718,696.136 754.368,728.926 699.718,761.716 "/>
    <polygon style="fill: none; fill-opacity:0; stroke-width: 2; stroke: #000000" points="645.068,728.926 699.718,696.136 754.368,728.926 699.718,761.716 "/>
    <text font-size="12.7998" style="fill: #000000;text-anchor:end;font-family:monospace;font-style:normal;font-weight:normal" x="639.068" y="722.926">N</text>
    <text font-size="12.7998" style="fill: #000000;text-anchor:start;font-family:monospace;font-style:normal;font-weight:normal" x="760.368" y="722.926">1</text>
    <text font-size="12.7998" style="fill: #000000;text-anchor:middle;font-family:monospace;font-style:normal;font-weight:normal" x="699.718" y="732.926">Co-piloto</text>
  </g>
  <polyline style="fill: none; fill-opacity:0; stroke-width: 2; stroke: #000000" points="843.394,729.067 836.207,729.067 836.207,728.926 754.368,728.926 "/>
  <polyline style="fill: none; fill-opacity:0; stroke-width: 2; stroke: #000000" points="645.068,728.926 645.068,730.138 433.462,730.138 433.462,621.556 "/>
  <g>
    <ellipse style="fill: #ffffff" cx="736.471" cy="664.7" rx="43.1" ry="18"/>
    <ellipse style="fill: none; fill-opacity:0; stroke-width: 2; stroke: #000000" cx="736.471" cy="664.7" rx="43.1" ry="18"/>
    <text font-size="12.7998" style="fill: #000000;text-anchor:middle;font-family:monospace;font-style:normal;font-weight:normal" x="736.471" y="668.7">código</text>
    <line style="fill: none; fill-opacity:0; stroke-width: 2; stroke-dasharray: 6; stroke: #000000" x1="713.371" y1="672.7" x2="759.571" y2="672.7"/>
  </g>
  <polyline style="fill: none; fill-opacity:0; stroke-width: 2; stroke: #000000" points="721.083,620.495 721.083,633.597 736.471,633.597 736.471,646.7 "/>
  <g>
    <ellipse style="fill: #ffffff" cx="1162.94" cy="504.894" rx="70.05" ry="18"/>
    <ellipse style="fill: none; fill-opacity:0; stroke-width: 2; stroke: #000000" cx="1162.94" cy="504.894" rx="70.05" ry="18"/>
    <ellipse style="fill: none; fill-opacity:0; stroke-width: 2; stroke: #000000" cx="1162.94" cy="504.894" rx="62.05" ry="14"/>
    <text font-size="12.7998" style="fill: #000000;text-anchor:middle;font-family:monospace;font-style:normal;font-weight:normal" x="1162.94" y="508.894">Certificações</text>
  </g>
  <polyline style="fill: none; fill-opacity:0; stroke-width: 2; stroke: #000000" points="1006.99,508.066 1006.99,529.066 1071.67,529.066 1071.67,505.632 1092.89,505.632 1092.89,504.894 "/>
  <g>
    <ellipse style="fill: #ffffff" cx="799.011" cy="472.721" rx="46.95" ry="18"/>
    <ellipse style="fill: none; fill-opacity:0; stroke-width: 2; stroke: #000000" cx="799.011" cy="472.721" rx="46.95" ry="18"/>
    <text font-size="12.7998" style="fill: #000000;text-anchor:middle;font-family:monospace;font-style:normal;font-weight:normal" x="799.011" y="476.721">assento</text>
    <line style="fill: none; fill-opacity:0; stroke-width: 2; stroke: #000000" x1="772.061" y1="480.721" x2="825.961" y2="480.721"/>
  </g>
  <polyline style="fill: none; fill-opacity:0; stroke-width: 2; stroke: #000000" points="764.132,512.775 799.011,512.775 799.011,490.721 "/>
  <polyline style="fill: none; fill-opacity:0; stroke-width: 2; stroke: #000000" points="788.983,602.495 867.654,602.495 867.654,602.721 946.325,602.721 "/>
  <polyline style="fill: none; fill-opacity:0; stroke-width: 2; stroke: #000000" points="1026.62,602.721 1064.76,602.721 1064.76,602.495 1102.9,602.495 "/>
  <polyline style="fill: none; fill-opacity:0; stroke-width: 2; stroke: #000000" points="720.746,411.632 720.746,389.503 788.521,389.503 "/>
  <g>
    <polygon style="fill: #ffffff" points="947.222,602.721 986.472,579.171 1025.72,602.721 986.472,626.271 "/>
    <polygon style="fill: none; fill-opacity:0; stroke-width: 2; stroke: #000000" points="947.222,602.721 986.472,579.171 1025.72,602.721 986.472,626.271 "/>
    <text font-size="12.7998" style="fill: #000000;text-anchor:end;font-family:monospace;font-style:normal;font-weight:normal" x="941.222" y="596.721">N</text>
    <text font-size="12.7998" style="fill: #000000;text-anchor:start;font-family:monospace;font-style:normal;font-weight:normal" x="1031.72" y="596.721">1</text>
    <text font-size="12.7998" style="fill: #000000;text-anchor:middle;font-family:monospace;font-style:normal;font-weight:normal" x="986.472" y="606.721">Vende</text>
  </g>
  <g>
    <rect style="fill: #ffffff" x="1025.71" y="674.63" width="81.9" height="36"/>
    <rect style="fill: none; fill-opacity:0; stroke-width: 2; stroke: #000000" x="1025.71" y="674.63" width="81.9" height="36"/>
    <rect style="fill: none; fill-opacity:0; stroke-width: 2; stroke: #000000" x="1030.71" y="679.63" width="71.9" height="26"/>
    <text font-size="12.7998" style="fill: #000000;text-anchor:middle;font-family:monospace;font-style:normal;font-weight:normal" x="1066.66" y="696.63">Bagagem</text>
  </g>
  <g>
    <polygon style="fill: #ffffff" points="920.352,667.916 948.052,651.296 975.752,667.916 948.052,684.536 "/>
    <polygon style="fill: none; fill-opacity:0; stroke-width: 2; stroke: #000000" points="920.352,667.916 948.052,651.296 975.752,667.916 948.052,684.536 "/>
    <text font-size="12.7998" style="fill: #000000;text-anchor:start;font-family:monospace;font-style:normal;font-weight:normal" x="952.052" y="645.296">1</text>
    <text font-size="12.7998" style="fill: #000000;text-anchor:start;font-family:monospace;font-style:normal;font-weight:normal" x="952.052" y="706.536">N</text>
    <text font-size="12.7998" style="fill: #000000;text-anchor:middle;font-family:monospace;font-style:normal;font-weight:normal" x="948.052" y="671.916">R4</text>
  </g>
  <polyline style="fill: none; fill-opacity:0; stroke-width: 2; stroke: #000000" points="788.983,620.495 788.983,635.896 948.052,635.896 948.052,651.296 "/>
  <polyline style="fill: none; fill-opacity:0; stroke-width: 2; stroke: #000000" points="948.052,684.536 948.636,684.536 948.636,710.63 1025.71,710.63 "/>
  <g>
    <ellipse style="fill: #ffffff" cx="1005.25" cy="767.583" rx="35.4" ry="18"/>
    <ellipse style="fill: none; fill-opacity:0; stroke-width: 2; stroke: #000000" cx="1005.25" cy="767.583" rx="35.4" ry="18"/>
    <text font-size="12.7998" style="fill: #000000;text-anchor:middle;font-family:monospace;font-style:normal;font-weight:normal" x="1005.25" y="771.583">Peso</text>
  </g>
  <g>
    <ellipse style="fill: #ffffff" cx="1102.75" cy="769.705" rx="43.1" ry="18"/>
    <ellipse style="fill: none; fill-opacity:0; stroke-width: 2; stroke: #000000" cx="1102.75" cy="769.705" rx="43.1" ry="18"/>
    <text font-size="12.7998" style="fill: #000000;text-anchor:middle;font-family:monospace;font-style:normal;font-weight:normal" x="1102.75" y="773.705">Volume</text>
  </g>
  <g>
    <ellipse style="fill: #ffffff" cx="1186.19" cy="692.984" rx="43.1" ry="18"/>
    <ellipse style="fill: none; fill-opacity:0; stroke-width: 2; stroke: #000000" cx="1186.19" cy="692.984" rx="43.1" ry="18"/>
    <text font-size="12.7998" style="fill: #000000;text-anchor:middle;font-family:monospace;font-style:normal;font-weight:normal" x="1186.19" y="696.984">número</text>
    <line style="fill: none; fill-opacity:0; stroke-width: 2; stroke-dasharray: 6; stroke: #000000" x1="1163.09" y1="700.984" x2="1209.29" y2="700.984"/>
  </g>
  <polyline style="fill: none; fill-opacity:0; stroke-width: 2; stroke: #000000" points="1025.71,710.63 1025.71,730.107 1005.25,730.107 1005.25,749.583 "/>
  <polyline style="fill: none; fill-opacity:0; stroke-width: 2; stroke: #000000" points="1066.66,710.63 1066.66,731.168 1102.75,731.168 1102.75,751.705 "/>
  <polyline style="fill: none; fill-opacity:0; stroke-width: 2; stroke: #000000" points="1108.62,692.63 1125.85,692.63 1125.85,692.984 1143.09,692.984 "/>
</svg>
